<svg width="148" height="152" viewBox="0 0 148 152" fill="none" xmlns="http://www.w3.org/2000/svg">
<rect width="148" height="152" rx="15" fill="#E4E0FF"/>
<path d="M101.903 25.6997C101.903 30.504 98.0086 34.3988 93.2042 34.3988C88.4 34.3988 84.5051 30.5041 84.5051 25.6997C84.5051 20.8948 88.3998 17 93.2042 17C98.0085 17 101.903 20.8947 101.903 25.6997Z" fill="url(#paint0_linear_1628_10023)"/>
<path d="M65.7556 25.6997C65.7556 30.504 61.8609 34.3988 57.0565 34.3988C52.2523 34.3988 48.3574 30.5041 48.3574 25.6997C48.3574 20.8948 52.2521 17 57.0565 17C61.8608 17 65.7556 20.8947 65.7556 25.6997Z" fill="url(#paint1_linear_1628_10023)"/>
<path d="M80.5356 37.6928C80.6199 37.5237 80.789 37.3552 80.8732 37.1861L49.1173 37.1855C47.9349 37.1855 46.8368 37.777 46.2459 38.7904L35.5197 56.5264C34.5906 58.0463 34.9282 60.1578 36.3645 61.1717C36.956 61.5941 37.6311 61.7632 38.3069 61.7632C39.405 61.7632 40.5026 61.1717 41.1783 60.1583L47.4282 49.7703V63.7903C47.4282 65.5642 48.8639 66.9151 50.553 66.9151H63.3907C65.1646 66.9151 66.5154 65.4794 66.5154 63.7903V43.9414H76.6501L80.5356 37.6928Z" fill="url(#paint2_linear_1628_10023)"/>
<path d="M114.741 56.6104L104.015 38.8744C103.423 37.8611 102.326 37.2695 101.143 37.2695L85.3497 37.2701C84.1674 37.2701 83.0692 37.8616 82.4783 38.875L71.7521 56.6954C70.9073 58.0469 71.0764 59.905 72.2588 61.0026C73.8636 62.4383 76.3126 62.0159 77.4106 60.2426L83.6606 49.8545V63.8746C83.6606 65.6485 85.0963 66.9993 86.7854 66.9993H99.7074C101.481 66.9993 102.832 65.5636 102.832 63.8746V49.8539L109.082 60.242C109.674 61.2553 110.771 61.8469 111.953 61.8469C112.629 61.8469 113.305 61.6778 113.896 61.2554C115.332 60.2427 115.67 58.1312 114.741 56.6107L114.741 56.6104Z" fill="url(#paint3_linear_1628_10023)"/>
<path d="M18.799 105.288C17.487 105.288 16.295 104.976 15.223 104.352C14.151 103.728 13.295 102.816 12.655 101.616C12.031 100.4 11.719 98.928 11.719 97.2C11.719 95.488 12.039 94.024 12.679 92.808C13.335 91.576 14.207 90.64 15.295 90C16.383 89.344 17.583 89.016 18.895 89.016C19.887 89.016 20.767 89.216 21.535 89.616C22.303 90.016 22.935 90.48 23.431 91.008L21.943 92.808C21.543 92.392 21.095 92.064 20.599 91.824C20.119 91.568 19.575 91.44 18.967 91.44C18.119 91.44 17.359 91.672 16.687 92.136C16.031 92.584 15.511 93.232 15.127 94.08C14.759 94.928 14.575 95.944 14.575 97.128C14.575 98.92 14.967 100.328 15.751 101.352C16.535 102.36 17.583 102.864 18.895 102.864C19.599 102.864 20.223 102.72 20.767 102.432C21.311 102.128 21.807 101.736 22.255 101.256L23.743 103.008C23.103 103.744 22.367 104.312 21.535 104.712C20.719 105.096 19.807 105.288 18.799 105.288ZM30.9471 105.288C29.9711 105.288 29.0591 105.048 28.2111 104.568C27.3631 104.072 26.6751 103.368 26.1471 102.456C25.6191 101.528 25.3551 100.416 25.3551 99.12C25.3551 97.808 25.6191 96.696 26.1471 95.784C26.6751 94.856 27.3631 94.152 28.2111 93.672C29.0591 93.176 29.9711 92.928 30.9471 92.928C31.9391 92.928 32.8591 93.176 33.7071 93.672C34.5551 94.152 35.2431 94.856 35.7711 95.784C36.2991 96.696 36.5631 97.808 36.5631 99.12C36.5631 100.416 36.2991 101.528 35.7711 102.456C35.2431 103.368 34.5551 104.072 33.7071 104.568C32.8591 105.048 31.9391 105.288 30.9471 105.288ZM30.9471 103.032C31.8111 103.032 32.4911 102.672 32.9871 101.952C33.4831 101.232 33.7311 100.288 33.7311 99.12C33.7311 97.936 33.4831 96.984 32.9871 96.264C32.4911 95.544 31.8111 95.184 30.9471 95.184C30.0831 95.184 29.4031 95.544 28.9071 96.264C28.4271 96.984 28.1871 97.936 28.1871 99.12C28.1871 100.288 28.4271 101.232 28.9071 101.952C29.4031 102.672 30.0831 103.032 30.9471 103.032ZM39.295 105V93.216H41.575L41.767 94.824H41.863C42.359 94.296 42.895 93.848 43.471 93.48C44.063 93.112 44.727 92.928 45.463 92.928C46.327 92.928 47.015 93.12 47.527 93.504C48.055 93.872 48.455 94.384 48.727 95.04C49.287 94.432 49.871 93.928 50.479 93.528C51.103 93.128 51.783 92.928 52.519 92.928C53.767 92.928 54.687 93.336 55.279 94.152C55.871 94.968 56.167 96.12 56.167 97.608V105H53.383V97.968C53.383 96.992 53.231 96.304 52.927 95.904C52.639 95.504 52.191 95.304 51.583 95.304C50.847 95.304 50.023 95.792 49.111 96.768V105H46.351V97.968C46.351 96.992 46.199 96.304 45.895 95.904C45.607 95.504 45.151 95.304 44.527 95.304C43.791 95.304 42.967 95.792 42.055 96.768V105H39.295ZM59.5215 109.656V93.216H61.8015L61.9935 94.464H62.0895C62.5855 94.048 63.1375 93.688 63.7455 93.384C64.3695 93.08 65.0015 92.928 65.6415 92.928C67.1135 92.928 68.2495 93.472 69.0495 94.56C69.8655 95.648 70.2735 97.104 70.2735 98.928C70.2735 100.272 70.0335 101.424 69.5535 102.384C69.0735 103.328 68.4495 104.048 67.6815 104.544C66.9295 105.04 66.1135 105.288 65.2335 105.288C64.7215 105.288 64.2095 105.176 63.6975 104.952C63.1855 104.712 62.6895 104.392 62.2095 103.992L62.2815 105.96V109.656H59.5215ZM64.6575 103.008C65.4415 103.008 66.0975 102.664 66.6255 101.976C67.1535 101.288 67.4175 100.28 67.4175 98.952C67.4175 97.768 67.2175 96.848 66.8175 96.192C66.4175 95.536 65.7695 95.208 64.8735 95.208C64.0415 95.208 63.1775 95.648 62.2815 96.528V102.024C62.7135 102.376 63.1295 102.632 63.5295 102.792C63.9295 102.936 64.3055 103.008 64.6575 103.008ZM75.6432 105.288C74.6192 105.288 73.7792 104.968 73.1232 104.328C72.4832 103.688 72.1632 102.856 72.1632 101.832C72.1632 100.568 72.7152 99.592 73.8192 98.904C74.9232 98.2 76.6832 97.72 79.0992 97.464C79.0832 96.84 78.9152 96.304 78.5952 95.856C78.2912 95.392 77.7392 95.16 76.9392 95.16C76.3632 95.16 75.7952 95.272 75.2352 95.496C74.6912 95.72 74.1552 95.992 73.6272 96.312L72.6192 94.464C73.2752 94.048 74.0112 93.688 74.8272 93.384C75.6592 93.08 76.5392 92.928 77.4672 92.928C78.9392 92.928 80.0352 93.368 80.7552 94.248C81.4912 95.112 81.8592 96.368 81.8592 98.016V105H79.5792L79.3872 103.704H79.2912C78.7632 104.152 78.1952 104.528 77.5872 104.832C76.9952 105.136 76.3472 105.288 75.6432 105.288ZM76.5312 103.128C77.0112 103.128 77.4432 103.016 77.8272 102.792C78.2272 102.552 78.6512 102.232 79.0992 101.832V99.192C77.4992 99.4 76.3872 99.712 75.7632 100.128C75.1392 100.528 74.8272 101.024 74.8272 101.616C74.8272 102.144 74.9872 102.528 75.3072 102.768C75.6272 103.008 76.0352 103.128 76.5312 103.128ZM85.1622 105V93.216H87.4422L87.6342 94.8H87.7302C88.2582 94.288 88.8342 93.848 89.4582 93.48C90.0822 93.112 90.7942 92.928 91.5942 92.928C92.8582 92.928 93.7782 93.336 94.3542 94.152C94.9302 94.968 95.2182 96.12 95.2182 97.608V105H92.4582V97.968C92.4582 96.992 92.3142 96.304 92.0262 95.904C91.7382 95.504 91.2662 95.304 90.6102 95.304C90.0982 95.304 89.6422 95.432 89.2422 95.688C88.8582 95.928 88.4182 96.288 87.9222 96.768V105H85.1622ZM98.5918 105V93.216H101.352V105H98.5918ZM99.9838 91.152C99.4878 91.152 99.0878 91.008 98.7838 90.72C98.4798 90.432 98.3278 90.048 98.3278 89.568C98.3278 89.104 98.4798 88.728 98.7838 88.44C99.0878 88.152 99.4878 88.008 99.9838 88.008C100.48 88.008 100.88 88.152 101.184 88.44C101.488 88.728 101.64 89.104 101.64 89.568C101.64 90.048 101.488 90.432 101.184 90.72C100.88 91.008 100.48 91.152 99.9838 91.152ZM109.697 105.288C108.721 105.288 107.809 105.048 106.961 104.568C106.113 104.072 105.425 103.368 104.897 102.456C104.369 101.528 104.105 100.416 104.105 99.12C104.105 97.808 104.369 96.696 104.897 95.784C105.425 94.856 106.113 94.152 106.961 93.672C107.809 93.176 108.721 92.928 109.697 92.928C110.689 92.928 111.609 93.176 112.457 93.672C113.305 94.152 113.993 94.856 114.521 95.784C115.049 96.696 115.313 97.808 115.313 99.12C115.313 100.416 115.049 101.528 114.521 102.456C113.993 103.368 113.305 104.072 112.457 104.568C111.609 105.048 110.689 105.288 109.697 105.288ZM109.697 103.032C110.561 103.032 111.241 102.672 111.737 101.952C112.233 101.232 112.481 100.288 112.481 99.12C112.481 97.936 112.233 96.984 111.737 96.264C111.241 95.544 110.561 95.184 109.697 95.184C108.833 95.184 108.153 95.544 107.657 96.264C107.177 96.984 106.937 97.936 106.937 99.12C106.937 100.288 107.177 101.232 107.657 101.952C108.153 102.672 108.833 103.032 109.697 103.032ZM118.045 105V93.216H120.325L120.517 94.8H120.613C121.141 94.288 121.717 93.848 122.341 93.48C122.965 93.112 123.677 92.928 124.477 92.928C125.741 92.928 126.661 93.336 127.237 94.152C127.813 94.968 128.101 96.12 128.101 97.608V105H125.341V97.968C125.341 96.992 125.197 96.304 124.909 95.904C124.621 95.504 124.149 95.304 123.493 95.304C122.981 95.304 122.525 95.432 122.125 95.688C121.741 95.928 121.301 96.288 120.805 96.768V105H118.045ZM130.731 99.96V97.944H136.443V99.96H130.731ZM57.2666 131.288C56.4666 131.288 55.6666 131.136 54.8666 130.832C54.0666 130.512 53.3786 130.12 52.8026 129.656L54.0986 127.88C54.6266 128.28 55.1546 128.6 55.6826 128.84C56.2106 129.08 56.7706 129.2 57.3626 129.2C58.0026 129.2 58.4746 129.064 58.7786 128.792C59.0826 128.52 59.2346 128.184 59.2346 127.784C59.2346 127.448 59.1066 127.176 58.8506 126.968C58.6106 126.744 58.2986 126.552 57.9146 126.392C57.5306 126.216 57.1306 126.048 56.7146 125.888C56.2026 125.696 55.6906 125.464 55.1786 125.192C54.6826 124.904 54.2746 124.544 53.9546 124.112C53.6346 123.664 53.4746 123.112 53.4746 122.456C53.4746 121.416 53.8586 120.568 54.6266 119.912C55.3946 119.256 56.4346 118.928 57.7466 118.928C58.5786 118.928 59.3226 119.072 59.9786 119.36C60.6346 119.648 61.2026 119.976 61.6826 120.344L60.4106 122.024C59.9946 121.72 59.5706 121.48 59.1386 121.304C58.7226 121.112 58.2826 121.016 57.8186 121.016C57.2266 121.016 56.7866 121.144 56.4986 121.4C56.2106 121.64 56.0666 121.944 56.0666 122.312C56.0666 122.776 56.3066 123.128 56.7866 123.368C57.2666 123.608 57.8266 123.84 58.4666 124.064C59.0106 124.256 59.5386 124.496 60.0506 124.784C60.5626 125.056 60.9866 125.416 61.3226 125.864C61.6746 126.312 61.8506 126.904 61.8506 127.64C61.8506 128.648 61.4586 129.512 60.6746 130.232C59.8906 130.936 58.7546 131.288 57.2666 131.288ZM64.3145 131V114.056H67.0745V118.424L66.9785 120.704C67.4745 120.24 68.0265 119.832 68.6345 119.48C69.2425 119.112 69.9465 118.928 70.7465 118.928C72.0105 118.928 72.9305 119.336 73.5065 120.152C74.0825 120.968 74.3705 122.12 74.3705 123.608V131H71.6105V123.968C71.6105 122.992 71.4665 122.304 71.1785 121.904C70.8905 121.504 70.4185 121.304 69.7625 121.304C69.2505 121.304 68.7945 121.432 68.3945 121.688C68.0105 121.928 67.5705 122.288 67.0745 122.768V131H64.3145ZM77.6973 131V119.216H80.4573V131H77.6973ZM79.0893 117.152C78.5933 117.152 78.1933 117.008 77.8893 116.72C77.5853 116.432 77.4333 116.048 77.4333 115.568C77.4333 115.104 77.5853 114.728 77.8893 114.44C78.1933 114.152 78.5933 114.008 79.0893 114.008C79.5853 114.008 79.9853 114.152 80.2893 114.44C80.5933 114.728 80.7453 115.104 80.7453 115.568C80.7453 116.048 80.5933 116.432 80.2893 116.72C79.9853 117.008 79.5853 117.152 79.0893 117.152ZM83.9786 135.656V119.216H86.2586L86.4506 120.464H86.5466C87.0426 120.048 87.5946 119.688 88.2026 119.384C88.8266 119.08 89.4586 118.928 90.0986 118.928C91.5706 118.928 92.7066 119.472 93.5066 120.56C94.3226 121.648 94.7306 123.104 94.7306 124.928C94.7306 126.272 94.4906 127.424 94.0106 128.384C93.5306 129.328 92.9066 130.048 92.1386 130.544C91.3866 131.04 90.5706 131.288 89.6906 131.288C89.1786 131.288 88.6666 131.176 88.1546 130.952C87.6426 130.712 87.1466 130.392 86.6666 129.992L86.7386 131.96V135.656H83.9786ZM89.1146 129.008C89.8986 129.008 90.5546 128.664 91.0826 127.976C91.6106 127.288 91.8746 126.28 91.8746 124.952C91.8746 123.768 91.6746 122.848 91.2746 122.192C90.8746 121.536 90.2266 121.208 89.3306 121.208C88.4986 121.208 87.6346 121.648 86.7386 122.528V128.024C87.1706 128.376 87.5866 128.632 87.9866 128.792C88.3866 128.936 88.7626 129.008 89.1146 129.008Z" fill="#4B4770"/>
<defs>
<linearGradient id="paint0_linear_1628_10023" x1="83.8953" y1="14.4445" x2="105.174" y2="31.7085" gradientUnits="userSpaceOnUse">
<stop stop-color="#5A5587"/>
<stop offset="1" stop-color="#9993CC"/>
</linearGradient>
<linearGradient id="paint1_linear_1628_10023" x1="47.7476" y1="14.4445" x2="69.0268" y2="31.7085" gradientUnits="userSpaceOnUse">
<stop stop-color="#5A5587"/>
<stop offset="1" stop-color="#9993CC"/>
</linearGradient>
<linearGradient id="paint2_linear_1628_10023" x1="33.3921" y1="32.819" x2="69.6315" y2="78.1872" gradientUnits="userSpaceOnUse">
<stop stop-color="#5A5587"/>
<stop offset="1" stop-color="#9993CC"/>
</linearGradient>
<linearGradient id="paint3_linear_1628_10023" x1="69.6806" y1="32.9029" x2="106.22" y2="76.8143" gradientUnits="userSpaceOnUse">
<stop stop-color="#5A5587"/>
<stop offset="1" stop-color="#9993CC"/>
</linearGradient>
</defs>
</svg>
