<svg width="148" height="152" viewBox="0 0 148 152" fill="none" xmlns="http://www.w3.org/2000/svg">
<rect width="148" height="152" rx="15" fill="#E4E0FF"/>
<path d="M50.7847 48.7493C50.7847 46.2839 52.7834 44.2852 55.2488 44.2852C57.7142 44.2852 59.713 46.2839 59.713 48.7493C59.713 51.2147 57.7142 53.2135 55.2488 53.2135C52.7834 53.2135 50.7847 51.2147 50.7847 48.7493Z" fill="url(#paint0_linear_1628_10011)"/>
<path d="M98.9977 48.7493C98.9977 51.2147 96.9989 53.2135 94.5335 53.2135C92.0681 53.2135 90.0693 51.2147 90.0693 48.7493C90.0693 46.2839 92.0681 44.2852 94.5335 44.2852C96.9989 44.2852 98.9977 46.2839 98.9977 48.7493Z" fill="url(#paint1_linear_1628_10011)"/>
<path d="M95.4263 73.7487V79.1054C95.4263 79.5983 95.0265 79.9981 94.5336 79.9981H85.6053C85.1125 79.9981 84.7126 79.5983 84.7126 79.1054V73.7487C84.7126 72.7626 85.5119 71.9629 86.4984 71.9629H93.641C94.6266 71.9633 95.4263 72.7625 95.4263 73.7487H95.4263Z" fill="url(#paint2_linear_1628_10011)"/>
<path d="M89.8144 69.2856H82.6545L81.117 78.5079C80.9546 79.4815 80.0325 80.1371 79.0618 79.9752C78.0898 79.8133 77.4321 78.8932 77.5944 77.92L79.3802 67.206C79.5239 66.3453 80.2691 65.7147 81.1414 65.7147H86.1009L88.3658 57.7874C88.879 55.9916 90.6382 54.7237 92.4771 55.0546C94.5913 55.4357 95.8651 57.5391 95.2896 59.5527L93.2486 66.6953C92.8101 68.2286 91.4092 69.2857 89.8144 69.2857V69.2856Z" fill="url(#paint3_linear_1628_10011)"/>
<path d="M59.7144 73.7487V79.1054C59.7144 79.5983 59.3146 79.9981 58.8217 79.9981H49.8934C49.4006 79.9981 49.0007 79.5983 49.0007 79.1054V73.7487C49.0007 72.7626 49.8 71.9629 50.7865 71.9629H57.9291C58.9143 71.9633 59.7144 72.7625 59.7144 73.7487H59.7144Z" fill="url(#paint4_linear_1628_10011)"/>
<path d="M65.0466 67.2069L66.8324 77.9209C66.9943 78.8941 66.337 79.8138 65.365 79.9761C64.3947 80.138 63.4721 79.4829 63.3098 78.5088L61.7719 69.2857H54.6123C53.0176 69.2857 51.6167 68.2286 51.1787 66.6953L49.1384 59.5528C48.563 57.5391 49.836 55.4358 51.9501 55.0546C53.7882 54.7237 55.5482 55.9909 56.0614 57.7874L56.232 58.3857L60.9486 56.8574C61.8845 56.5522 62.8938 57.067 63.1973 58.0054C63.5016 58.9433 62.9872 59.9506 62.0493 60.2541L57.2131 61.8214L58.3258 65.7147H63.2853C64.1576 65.7147 64.9025 66.3454 65.0465 67.2069L65.0466 67.2069Z" fill="url(#paint5_linear_1628_10011)"/>
<path d="M84.7121 42.4998V31.7858C84.7121 30.7997 83.9129 30 82.9264 30H65.0697C64.0836 30 63.2839 30.7992 63.2839 31.7858V48.3489C63.2839 48.8264 63.8606 49.0651 64.1982 48.7275L68.6412 44.285H82.9265C83.9126 44.285 84.7123 43.4857 84.7123 42.4992L84.7121 42.4998ZM68.6411 38.9286C67.6551 38.9286 66.8554 38.1294 66.8554 37.1429C66.8554 36.1568 67.6546 35.3571 68.6411 35.3571C69.6272 35.3571 70.4269 36.1563 70.4269 37.1429C70.4265 38.129 69.6273 38.9286 68.6411 38.9286ZM73.9979 38.9286C73.0118 38.9286 72.2122 38.1294 72.2122 37.1429C72.2122 36.1568 73.0114 35.3571 73.9979 35.3571C74.984 35.3571 75.7837 36.1563 75.7837 37.1429C75.7837 38.129 74.984 38.9286 73.9979 38.9286ZM79.3547 38.9286C78.3686 38.9286 77.5689 38.1294 77.5689 37.1429C77.5689 36.1568 78.3682 35.3571 79.3547 35.3571C80.3408 35.3571 81.1405 36.1563 81.1405 37.1429C81.1405 38.129 80.3412 38.9286 79.3547 38.9286Z" fill="url(#paint6_linear_1628_10011)"/>
<path d="M25.2755 118.288C23.9635 118.288 22.7715 117.976 21.6995 117.352C20.6275 116.728 19.7715 115.816 19.1315 114.616C18.5075 113.4 18.1955 111.928 18.1955 110.2C18.1955 108.488 18.5155 107.024 19.1555 105.808C19.8115 104.576 20.6835 103.64 21.7715 103C22.8595 102.344 24.0595 102.016 25.3715 102.016C26.3635 102.016 27.2435 102.216 28.0115 102.616C28.7795 103.016 29.4115 103.48 29.9075 104.008L28.4195 105.808C28.0195 105.392 27.5715 105.064 27.0755 104.824C26.5955 104.568 26.0515 104.44 25.4435 104.44C24.5955 104.44 23.8355 104.672 23.1635 105.136C22.5075 105.584 21.9875 106.232 21.6035 107.08C21.2355 107.928 21.0515 108.944 21.0515 110.128C21.0515 111.92 21.4435 113.328 22.2275 114.352C23.0115 115.36 24.0595 115.864 25.3715 115.864C26.0755 115.864 26.6995 115.72 27.2435 115.432C27.7875 115.128 28.2835 114.736 28.7315 114.256L30.2195 116.008C29.5795 116.744 28.8435 117.312 28.0115 117.712C27.1955 118.096 26.2835 118.288 25.2755 118.288ZM37.4237 118.288C36.4477 118.288 35.5357 118.048 34.6877 117.568C33.8397 117.072 33.1517 116.368 32.6237 115.456C32.0957 114.528 31.8317 113.416 31.8317 112.12C31.8317 110.808 32.0957 109.696 32.6237 108.784C33.1517 107.856 33.8397 107.152 34.6877 106.672C35.5357 106.176 36.4477 105.928 37.4237 105.928C38.4157 105.928 39.3357 106.176 40.1837 106.672C41.0317 107.152 41.7197 107.856 42.2477 108.784C42.7757 109.696 43.0397 110.808 43.0397 112.12C43.0397 113.416 42.7757 114.528 42.2477 115.456C41.7197 116.368 41.0317 117.072 40.1837 117.568C39.3357 118.048 38.4157 118.288 37.4237 118.288ZM37.4237 116.032C38.2877 116.032 38.9677 115.672 39.4637 114.952C39.9597 114.232 40.2077 113.288 40.2077 112.12C40.2077 110.936 39.9597 109.984 39.4637 109.264C38.9677 108.544 38.2877 108.184 37.4237 108.184C36.5597 108.184 35.8797 108.544 35.3837 109.264C34.9037 109.984 34.6637 110.936 34.6637 112.12C34.6637 113.288 34.9037 114.232 35.3837 114.952C35.8797 115.672 36.5597 116.032 37.4237 116.032ZM49.2755 118.288C48.0115 118.288 47.0915 117.88 46.5155 117.064C45.9395 116.248 45.6515 115.096 45.6515 113.608V106.216H48.4115V113.248C48.4115 114.224 48.5555 114.912 48.8435 115.312C49.1315 115.712 49.5955 115.912 50.2355 115.912C50.7475 115.912 51.1955 115.784 51.5795 115.528C51.9795 115.272 52.4035 114.856 52.8515 114.28V106.216H55.6115V118H53.3555L53.1395 116.272H53.0675C52.5555 116.88 51.9955 117.368 51.3875 117.736C50.7795 118.104 50.0755 118.288 49.2755 118.288ZM59.1075 118V106.216H61.3875L61.5795 107.8H61.6755C62.2035 107.288 62.7795 106.848 63.4035 106.48C64.0275 106.112 64.7395 105.928 65.5395 105.928C66.8035 105.928 67.7235 106.336 68.2995 107.152C68.8755 107.968 69.1635 109.12 69.1635 110.608V118H66.4035V110.968C66.4035 109.992 66.2595 109.304 65.9715 108.904C65.6835 108.504 65.2115 108.304 64.5555 108.304C64.0435 108.304 63.5875 108.432 63.1875 108.688C62.8035 108.928 62.3635 109.288 61.8675 109.768V118H59.1075ZM75.8252 118.288C75.0252 118.288 74.2252 118.136 73.4252 117.832C72.6252 117.512 71.9372 117.12 71.3612 116.656L72.6572 114.88C73.1852 115.28 73.7132 115.6 74.2412 115.84C74.7692 116.08 75.3292 116.2 75.9212 116.2C76.5612 116.2 77.0332 116.064 77.3372 115.792C77.6412 115.52 77.7932 115.184 77.7932 114.784C77.7932 114.448 77.6652 114.176 77.4092 113.968C77.1692 113.744 76.8572 113.552 76.4732 113.392C76.0892 113.216 75.6892 113.048 75.2732 112.888C74.7612 112.696 74.2492 112.464 73.7372 112.192C73.2412 111.904 72.8332 111.544 72.5132 111.112C72.1932 110.664 72.0332 110.112 72.0332 109.456C72.0332 108.416 72.4172 107.568 73.1852 106.912C73.9532 106.256 74.9932 105.928 76.3052 105.928C77.1372 105.928 77.8812 106.072 78.5372 106.36C79.1932 106.648 79.7612 106.976 80.2412 107.344L78.9692 109.024C78.5532 108.72 78.1292 108.48 77.6972 108.304C77.2812 108.112 76.8412 108.016 76.3772 108.016C75.7852 108.016 75.3452 108.144 75.0572 108.4C74.7692 108.64 74.6252 108.944 74.6252 109.312C74.6252 109.776 74.8652 110.128 75.3452 110.368C75.8252 110.608 76.3852 110.84 77.0252 111.064C77.5692 111.256 78.0972 111.496 78.6092 111.784C79.1212 112.056 79.5452 112.416 79.8812 112.864C80.2332 113.312 80.4092 113.904 80.4092 114.64C80.4092 115.648 80.0172 116.512 79.2332 117.232C78.4492 117.936 77.3132 118.288 75.8252 118.288ZM87.9131 118.288C86.8251 118.288 85.8411 118.048 84.9611 117.568C84.0811 117.072 83.3851 116.368 82.8731 115.456C82.3611 114.528 82.1051 113.416 82.1051 112.12C82.1051 110.84 82.3611 109.736 82.8731 108.808C83.4011 107.88 84.0811 107.168 84.9131 106.672C85.7451 106.176 86.6171 105.928 87.5291 105.928C88.6011 105.928 89.4971 106.168 90.2171 106.648C90.9371 107.112 91.4811 107.768 91.8491 108.616C92.2171 109.448 92.4011 110.416 92.4011 111.52C92.4011 112.096 92.3611 112.544 92.2811 112.864H84.7931C84.9211 113.904 85.2971 114.712 85.9211 115.288C86.5451 115.864 87.3291 116.152 88.2731 116.152C88.7851 116.152 89.2571 116.08 89.6891 115.936C90.1371 115.776 90.5771 115.56 91.0091 115.288L91.9451 117.016C91.3851 117.384 90.7611 117.688 90.0731 117.928C89.3851 118.168 88.6651 118.288 87.9131 118.288ZM84.7691 110.992H90.0011C90.0011 110.08 89.8011 109.368 89.4011 108.856C89.0011 108.328 88.4011 108.064 87.6011 108.064C86.9131 108.064 86.2971 108.32 85.7531 108.832C85.2251 109.328 84.8971 110.048 84.7691 110.992ZM97.7252 118.288C96.7492 118.288 96.0532 117.992 95.6372 117.4C95.2372 116.808 95.0372 116 95.0372 114.976V101.056H97.7972V115.12C97.7972 115.456 97.8612 115.696 97.9892 115.84C98.1172 115.968 98.2532 116.032 98.3972 116.032C98.4612 116.032 98.5172 116.032 98.5652 116.032C98.6292 116.016 98.7172 116 98.8292 115.984L99.1892 118.048C99.0292 118.112 98.8212 118.168 98.5652 118.216C98.3252 118.264 98.0452 118.288 97.7252 118.288ZM101.553 118V106.216H104.313V118H101.553ZM102.945 104.152C102.449 104.152 102.049 104.008 101.745 103.72C101.441 103.432 101.289 103.048 101.289 102.568C101.289 102.104 101.441 101.728 101.745 101.44C102.049 101.152 102.449 101.008 102.945 101.008C103.441 101.008 103.841 101.152 104.145 101.44C104.449 101.728 104.601 102.104 104.601 102.568C104.601 103.048 104.449 103.432 104.145 103.72C103.841 104.008 103.441 104.152 102.945 104.152ZM107.834 118V106.216H110.114L110.306 107.8H110.402C110.93 107.288 111.506 106.848 112.13 106.48C112.754 106.112 113.466 105.928 114.266 105.928C115.53 105.928 116.45 106.336 117.026 107.152C117.602 107.968 117.89 109.12 117.89 110.608V118H115.13V110.968C115.13 109.992 114.986 109.304 114.698 108.904C114.41 108.504 113.938 108.304 113.282 108.304C112.77 108.304 112.314 108.432 111.914 108.688C111.53 108.928 111.09 109.288 110.594 109.768V118H107.834ZM125.368 123.208C124.44 123.208 123.6 123.096 122.848 122.872C122.112 122.648 121.528 122.304 121.096 121.84C120.68 121.392 120.472 120.824 120.472 120.136C120.472 119.16 121.032 118.32 122.152 117.616V117.52C121.848 117.328 121.592 117.072 121.384 116.752C121.192 116.432 121.096 116.032 121.096 115.552C121.096 115.088 121.224 114.672 121.48 114.304C121.752 113.92 122.056 113.608 122.392 113.368V113.272C121.992 112.968 121.632 112.544 121.312 112C121.008 111.456 120.856 110.84 120.856 110.152C120.856 109.24 121.072 108.472 121.504 107.848C121.936 107.224 122.504 106.752 123.208 106.432C123.928 106.096 124.696 105.928 125.512 105.928C125.832 105.928 126.136 105.96 126.424 106.024C126.728 106.072 127 106.136 127.24 106.216H131.464V108.256H129.304C129.496 108.48 129.656 108.768 129.784 109.12C129.912 109.456 129.976 109.832 129.976 110.248C129.976 111.112 129.776 111.848 129.376 112.456C128.976 113.048 128.44 113.496 127.768 113.8C127.096 114.104 126.344 114.256 125.512 114.256C125.256 114.256 124.992 114.232 124.72 114.184C124.448 114.136 124.176 114.056 123.904 113.944C123.728 114.104 123.584 114.264 123.472 114.424C123.376 114.584 123.328 114.8 123.328 115.072C123.328 115.408 123.464 115.672 123.736 115.864C124.024 116.056 124.528 116.152 125.248 116.152H127.336C128.76 116.152 129.832 116.384 130.552 116.848C131.288 117.296 131.656 118.032 131.656 119.056C131.656 119.824 131.4 120.52 130.888 121.144C130.376 121.784 129.648 122.288 128.704 122.656C127.76 123.024 126.648 123.208 125.368 123.208ZM125.512 112.528C126.072 112.528 126.552 112.32 126.952 111.904C127.352 111.488 127.552 110.904 127.552 110.152C127.552 109.416 127.352 108.848 126.952 108.448C126.568 108.032 126.088 107.824 125.512 107.824C124.936 107.824 124.448 108.024 124.048 108.424C123.648 108.824 123.448 109.4 123.448 110.152C123.448 110.904 123.648 111.488 124.048 111.904C124.448 112.32 124.936 112.528 125.512 112.528ZM125.8 121.408C126.744 121.408 127.512 121.216 128.104 120.832C128.696 120.448 128.992 120.008 128.992 119.512C128.992 119.048 128.808 118.736 128.44 118.576C128.088 118.416 127.576 118.336 126.904 118.336H125.296C124.656 118.336 124.12 118.28 123.688 118.168C123.08 118.632 122.776 119.152 122.776 119.728C122.776 120.256 123.048 120.664 123.592 120.952C124.136 121.256 124.872 121.408 125.8 121.408Z" fill="#4B4770"/>
<defs>
<linearGradient id="paint0_linear_1628_10011" x1="50.4717" y1="42.9738" x2="61.3914" y2="51.8333" gradientUnits="userSpaceOnUse">
<stop stop-color="#5A5587"/>
<stop offset="1" stop-color="#9993CC"/>
</linearGradient>
<linearGradient id="paint1_linear_1628_10011" x1="89.7564" y1="42.9738" x2="100.676" y2="51.8333" gradientUnits="userSpaceOnUse">
<stop stop-color="#5A5587"/>
<stop offset="1" stop-color="#9993CC"/>
</linearGradient>
<linearGradient id="paint2_linear_1628_10011" x1="84.3371" y1="70.7827" x2="94.3491" y2="81.6135" gradientUnits="userSpaceOnUse">
<stop stop-color="#5A5587"/>
<stop offset="1" stop-color="#9993CC"/>
</linearGradient>
<linearGradient id="paint3_linear_1628_10011" x1="76.9439" y1="51.3304" x2="104.055" y2="67.044" gradientUnits="userSpaceOnUse">
<stop stop-color="#5A5587"/>
<stop offset="1" stop-color="#9993CC"/>
</linearGradient>
<linearGradient id="paint4_linear_1628_10011" x1="48.6252" y1="70.7827" x2="58.6372" y2="81.6135" gradientUnits="userSpaceOnUse">
<stop stop-color="#5A5587"/>
<stop offset="1" stop-color="#9993CC"/>
</linearGradient>
<linearGradient id="paint5_linear_1628_10011" x1="48.3741" y1="51.3302" x2="75.4843" y2="67.0418" gradientUnits="userSpaceOnUse">
<stop stop-color="#5A5587"/>
<stop offset="1" stop-color="#9993CC"/>
</linearGradient>
<linearGradient id="paint6_linear_1628_10011" x1="62.5329" y1="27.2261" x2="86.0567" y2="48.8815" gradientUnits="userSpaceOnUse">
<stop stop-color="#5A5587"/>
<stop offset="1" stop-color="#9993CC"/>
</linearGradient>
</defs>
</svg>
