<svg width="148" height="152" viewBox="0 0 148 152" fill="none" xmlns="http://www.w3.org/2000/svg">
<rect width="148" height="152" rx="15" fill="#E4E0FF"/>
<path d="M60.9456 52.8336C64.8692 52.8336 68.1736 49.7086 68.1736 45.5421C68.1736 41.584 64.8692 38.459 60.9456 38.459C57.0219 38.459 53.7175 41.584 53.7175 45.5421C53.9241 49.7086 57.0219 52.8336 60.9456 52.8336Z" fill="url(#paint0_linear_1628_10001)"/>
<path d="M50 62.6244V64.2911C50 65.7493 51.0329 66.9993 52.6851 66.9993H69.4132C70.8588 66.9993 72.0979 65.7495 72.0979 64.2911V62.6244C72.0979 58.4578 69.6199 54.7076 66.7282 53.041C65.076 54.2909 63.2173 55.1245 60.9457 55.1245C58.8804 55.1245 56.8155 54.2914 55.1632 53.041C51.8589 55.1245 50.0001 58.6658 50.0001 62.6244H50Z" fill="url(#paint1_linear_1628_10001)"/>
<path d="M78.0877 66.9993H94.8158C96.2614 66.9993 97.5005 65.7495 97.5005 64.2911V62.6244C97.5005 58.2495 94.8158 54.7076 92.1308 53.041C90.4786 54.2909 88.6199 55.1245 86.555 55.1245C84.4896 55.1245 82.4247 54.2914 80.7725 53.041C77.4682 55.1245 75.4028 58.6658 75.4028 62.6244V64.2911C75.4033 65.7493 76.6423 66.9993 78.088 66.9993H78.0877Z" fill="url(#paint2_linear_1628_10001)"/>
<path d="M86.5535 38.459C82.6298 38.459 79.3254 41.584 79.3254 45.5421C79.3254 49.5002 82.4232 52.8336 86.5535 52.8336C90.4772 52.8336 93.5749 49.7086 93.5749 45.5421C93.5749 41.7923 90.4772 38.459 86.5535 38.459Z" fill="url(#paint3_linear_1628_10001)"/>
<path d="M85.1092 30.7498C86.3482 31.9997 86.7615 33.6665 86.5548 35.7499C86.5548 36.5831 86.9679 37.4167 87.7938 37.625H88.2069C89.0328 37.625 89.6525 37.2083 89.8592 36.5835C90.8916 34.7084 91.5114 32.417 91.3047 30.3336C92.7503 29.9168 93.7828 28.6668 93.7828 27.2086V20.125C93.7828 18.4583 92.3372 17 90.685 17H56.6093C54.7505 17 53.5115 18.4583 53.5115 20.125V27.4165C53.5115 28.8747 54.5439 30.1247 55.9895 30.5415C55.9895 32.625 56.4026 34.9164 57.435 36.7915C57.6416 37.4166 58.2614 37.8334 58.8811 37.8334H59.2938C60.1196 37.625 60.5328 36.7919 60.5328 35.9583C60.3262 34.0832 60.9459 32.2081 61.9783 30.9582C62.1849 30.7498 62.3915 30.7498 62.5981 30.7498H84.2826C84.9023 30.5414 85.1089 30.7498 85.1089 30.7498L85.1092 30.7498ZM65.4891 27.0001H59.2936C58.6738 27.0001 58.2611 26.5833 58.2611 25.9586C58.2611 25.3334 58.6743 24.9166 59.2936 24.9166H65.4891C66.1089 24.9166 66.5216 25.3334 66.5216 25.9581C66.522 26.5833 65.9023 27.0001 65.4891 27.0001ZM70.4457 22.6248H59.2937C58.6739 22.6248 58.2612 22.208 58.2612 21.5832C58.2612 21.1665 58.6744 20.7501 59.2937 20.7501H70.2393C70.859 20.7501 71.2717 21.1669 71.2717 21.7916C71.2722 22.2084 70.859 22.6248 70.4459 22.6248H70.4457ZM76.2282 21.7916C76.2282 21.1665 76.6413 20.7501 77.2606 20.7501H88.2067C88.8264 20.7501 89.2391 21.1669 89.2391 21.7916C89.2391 22.4168 88.826 22.8332 88.2067 22.8332H77.2611C76.6413 22.6248 76.2282 22.2084 76.2282 21.7916H76.2282ZM80.3589 25.9581C80.3589 25.333 80.772 24.9166 81.3913 24.9166H88.2067C88.8264 24.9166 89.2391 25.3334 89.2391 25.9581C89.2391 26.5833 88.826 27.0001 88.2067 27.0001H81.3913C80.7716 27.0001 80.3589 26.5833 80.3589 25.9581Z" fill="url(#paint4_linear_1628_10001)"/>
<path d="M21.1951 105V89.304H25.3951C27.7951 89.304 29.6671 89.952 31.0111 91.248C32.3551 92.544 33.0271 94.488 33.0271 97.08C33.0271 99.688 32.3631 101.664 31.0351 103.008C29.7071 104.336 27.8751 105 25.5391 105H21.1951ZM23.9791 102.744H25.2031C26.7871 102.744 28.0111 102.288 28.8751 101.376C29.7391 100.448 30.1711 99.016 30.1711 97.08C30.1711 95.16 29.7391 93.76 28.8751 92.88C28.0111 92 26.7871 91.56 25.2031 91.56H23.9791V102.744ZM35.9551 105V93.216H38.7151V105H35.9551ZM37.3471 91.152C36.8511 91.152 36.4511 91.008 36.1471 90.72C35.8431 90.432 35.6911 90.048 35.6911 89.568C35.6911 89.104 35.8431 88.728 36.1471 88.44C36.4511 88.152 36.8511 88.008 37.3471 88.008C37.8431 88.008 38.2431 88.152 38.5471 88.44C38.8511 88.728 39.0031 89.104 39.0031 89.568C39.0031 90.048 38.8511 90.432 38.5471 90.72C38.2431 91.008 37.8431 91.152 37.3471 91.152ZM45.5244 105.288C44.7244 105.288 43.9244 105.136 43.1244 104.832C42.3244 104.512 41.6364 104.12 41.0604 103.656L42.3564 101.88C42.8844 102.28 43.4124 102.6 43.9404 102.84C44.4684 103.08 45.0284 103.2 45.6204 103.2C46.2604 103.2 46.7324 103.064 47.0364 102.792C47.3404 102.52 47.4924 102.184 47.4924 101.784C47.4924 101.448 47.3644 101.176 47.1084 100.968C46.8684 100.744 46.5564 100.552 46.1724 100.392C45.7884 100.216 45.3884 100.048 44.9724 99.888C44.4604 99.696 43.9484 99.464 43.4364 99.192C42.9404 98.904 42.5324 98.544 42.2124 98.112C41.8924 97.664 41.7324 97.112 41.7324 96.456C41.7324 95.416 42.1164 94.568 42.8844 93.912C43.6524 93.256 44.6924 92.928 46.0044 92.928C46.8364 92.928 47.5804 93.072 48.2364 93.36C48.8924 93.648 49.4604 93.976 49.9404 94.344L48.6684 96.024C48.2524 95.72 47.8284 95.48 47.3964 95.304C46.9804 95.112 46.5404 95.016 46.0764 95.016C45.4844 95.016 45.0444 95.144 44.7564 95.4C44.4684 95.64 44.3244 95.944 44.3244 96.312C44.3244 96.776 44.5644 97.128 45.0444 97.368C45.5244 97.608 46.0844 97.84 46.7244 98.064C47.2684 98.256 47.7964 98.496 48.3084 98.784C48.8204 99.056 49.2444 99.416 49.5804 99.864C49.9324 100.312 50.1084 100.904 50.1084 101.64C50.1084 102.648 49.7164 103.512 48.9324 104.232C48.1484 104.936 47.0124 105.288 45.5244 105.288ZM57.4923 105.288C56.4203 105.288 55.4523 105.048 54.5883 104.568C53.7403 104.072 53.0603 103.368 52.5483 102.456C52.0523 101.528 51.8043 100.416 51.8043 99.12C51.8043 97.808 52.0763 96.696 52.6203 95.784C53.1643 94.856 53.8843 94.152 54.7803 93.672C55.6923 93.176 56.6683 92.928 57.7083 92.928C58.4603 92.928 59.1163 93.056 59.6763 93.312C60.2363 93.568 60.7323 93.88 61.1643 94.248L59.8203 96.048C59.5163 95.776 59.2043 95.568 58.8843 95.424C58.5643 95.264 58.2203 95.184 57.8523 95.184C56.9083 95.184 56.1323 95.544 55.5243 96.264C54.9323 96.984 54.6363 97.936 54.6363 99.12C54.6363 100.288 54.9243 101.232 55.5003 101.952C56.0923 102.672 56.8523 103.032 57.7803 103.032C58.2443 103.032 58.6763 102.936 59.0763 102.744C59.4923 102.536 59.8683 102.296 60.2043 102.024L61.3323 103.848C60.7883 104.328 60.1803 104.688 59.5083 104.928C58.8363 105.168 58.1643 105.288 57.4923 105.288ZM67.1623 105.288C65.8983 105.288 64.9783 104.88 64.4023 104.064C63.8263 103.248 63.5383 102.096 63.5383 100.608V93.216H66.2983V100.248C66.2983 101.224 66.4423 101.912 66.7303 102.312C67.0183 102.712 67.4823 102.912 68.1223 102.912C68.6343 102.912 69.0823 102.784 69.4663 102.528C69.8663 102.272 70.2903 101.856 70.7383 101.28V93.216H73.4983V105H71.2423L71.0263 103.272H70.9543C70.4423 103.88 69.8823 104.368 69.2743 104.736C68.6663 105.104 67.9623 105.288 67.1623 105.288ZM80.2822 105.288C79.4822 105.288 78.6822 105.136 77.8822 104.832C77.0822 104.512 76.3942 104.12 75.8182 103.656L77.1142 101.88C77.6422 102.28 78.1702 102.6 78.6982 102.84C79.2262 103.08 79.7862 103.2 80.3782 103.2C81.0182 103.2 81.4902 103.064 81.7942 102.792C82.0982 102.52 82.2502 102.184 82.2502 101.784C82.2502 101.448 82.1222 101.176 81.8662 100.968C81.6262 100.744 81.3142 100.552 80.9302 100.392C80.5462 100.216 80.1462 100.048 79.7302 99.888C79.2182 99.696 78.7062 99.464 78.1942 99.192C77.6982 98.904 77.2902 98.544 76.9702 98.112C76.6502 97.664 76.4902 97.112 76.4902 96.456C76.4902 95.416 76.8742 94.568 77.6422 93.912C78.4102 93.256 79.4502 92.928 80.7622 92.928C81.5942 92.928 82.3382 93.072 82.9942 93.36C83.6502 93.648 84.2182 93.976 84.6982 94.344L83.4262 96.024C83.0102 95.72 82.5862 95.48 82.1542 95.304C81.7382 95.112 81.2982 95.016 80.8342 95.016C80.2422 95.016 79.8022 95.144 79.5142 95.4C79.2262 95.64 79.0822 95.944 79.0822 96.312C79.0822 96.776 79.3222 97.128 79.8022 97.368C80.2822 97.608 80.8422 97.84 81.4822 98.064C82.0262 98.256 82.5542 98.496 83.0662 98.784C83.5782 99.056 84.0022 99.416 84.3382 99.864C84.6902 100.312 84.8662 100.904 84.8662 101.64C84.8662 102.648 84.4742 103.512 83.6902 104.232C82.9062 104.936 81.7702 105.288 80.2822 105.288ZM90.6181 105.288C89.8181 105.288 89.0181 105.136 88.2181 104.832C87.4181 104.512 86.7301 104.12 86.1541 103.656L87.4501 101.88C87.9781 102.28 88.5061 102.6 89.0341 102.84C89.5621 103.08 90.1221 103.2 90.7141 103.2C91.3541 103.2 91.8261 103.064 92.1301 102.792C92.4341 102.52 92.5861 102.184 92.5861 101.784C92.5861 101.448 92.4581 101.176 92.2021 100.968C91.9621 100.744 91.6501 100.552 91.2661 100.392C90.8821 100.216 90.4821 100.048 90.0661 99.888C89.5541 99.696 89.0421 99.464 88.5301 99.192C88.0341 98.904 87.6261 98.544 87.3061 98.112C86.9861 97.664 86.8261 97.112 86.8261 96.456C86.8261 95.416 87.2101 94.568 87.9781 93.912C88.7461 93.256 89.7861 92.928 91.0981 92.928C91.9301 92.928 92.6741 93.072 93.3301 93.36C93.9861 93.648 94.5541 93.976 95.0341 94.344L93.7621 96.024C93.3461 95.72 92.9221 95.48 92.4901 95.304C92.0741 95.112 91.6341 95.016 91.1701 95.016C90.5781 95.016 90.1381 95.144 89.8501 95.4C89.5621 95.64 89.4181 95.944 89.4181 96.312C89.4181 96.776 89.6581 97.128 90.1381 97.368C90.6181 97.608 91.1781 97.84 91.8181 98.064C92.3621 98.256 92.8901 98.496 93.4021 98.784C93.9141 99.056 94.3381 99.416 94.6741 99.864C95.0261 100.312 95.2021 100.904 95.2021 101.64C95.2021 102.648 94.8101 103.512 94.0261 104.232C93.2421 104.936 92.1061 105.288 90.6181 105.288ZM97.6661 105V93.216H100.426V105H97.6661ZM99.0581 91.152C98.5621 91.152 98.1621 91.008 97.8581 90.72C97.5541 90.432 97.4021 90.048 97.4021 89.568C97.4021 89.104 97.5541 88.728 97.8581 88.44C98.1621 88.152 98.5621 88.008 99.0581 88.008C99.5541 88.008 99.9541 88.152 100.258 88.44C100.562 88.728 100.714 89.104 100.714 89.568C100.714 90.048 100.562 90.432 100.258 90.72C99.9541 91.008 99.5541 91.152 99.0581 91.152ZM108.771 105.288C107.795 105.288 106.883 105.048 106.035 104.568C105.187 104.072 104.499 103.368 103.971 102.456C103.443 101.528 103.179 100.416 103.179 99.12C103.179 97.808 103.443 96.696 103.971 95.784C104.499 94.856 105.187 94.152 106.035 93.672C106.883 93.176 107.795 92.928 108.771 92.928C109.763 92.928 110.683 93.176 111.531 93.672C112.379 94.152 113.067 94.856 113.595 95.784C114.123 96.696 114.387 97.808 114.387 99.12C114.387 100.416 114.123 101.528 113.595 102.456C113.067 103.368 112.379 104.072 111.531 104.568C110.683 105.048 109.763 105.288 108.771 105.288ZM108.771 103.032C109.635 103.032 110.315 102.672 110.811 101.952C111.307 101.232 111.555 100.288 111.555 99.12C111.555 97.936 111.307 96.984 110.811 96.264C110.315 95.544 109.635 95.184 108.771 95.184C107.907 95.184 107.227 95.544 106.731 96.264C106.251 96.984 106.011 97.936 106.011 99.12C106.011 100.288 106.251 101.232 106.731 101.952C107.227 102.672 107.907 103.032 108.771 103.032ZM117.119 105V93.216H119.399L119.591 94.8H119.687C120.215 94.288 120.791 93.848 121.415 93.48C122.039 93.112 122.751 92.928 123.551 92.928C124.815 92.928 125.735 93.336 126.311 94.152C126.887 94.968 127.175 96.12 127.175 97.608V105H124.415V97.968C124.415 96.992 124.271 96.304 123.983 95.904C123.695 95.504 123.223 95.304 122.567 95.304C122.055 95.304 121.599 95.432 121.199 95.688C120.815 95.928 120.375 96.288 119.879 96.768V105H117.119ZM44.6968 131V121.4H43.1128V119.336L44.6968 119.216V117.992C44.6968 116.76 45.0008 115.752 45.6088 114.968C46.2168 114.168 47.2168 113.768 48.6088 113.768C49.0248 113.768 49.4248 113.808 49.8088 113.888C50.1928 113.968 50.5128 114.064 50.7688 114.176L50.2408 116.24C49.8088 116.048 49.3768 115.952 48.9448 115.952C47.9528 115.952 47.4568 116.616 47.4568 117.944V119.216H49.7608V121.4H47.4568V131H44.6968ZM56.4237 131.288C55.4477 131.288 54.5357 131.048 53.6877 130.568C52.8397 130.072 52.1517 129.368 51.6237 128.456C51.0957 127.528 50.8317 126.416 50.8317 125.12C50.8317 123.808 51.0957 122.696 51.6237 121.784C52.1517 120.856 52.8397 120.152 53.6877 119.672C54.5357 119.176 55.4477 118.928 56.4237 118.928C57.4157 118.928 58.3357 119.176 59.1837 119.672C60.0317 120.152 60.7197 120.856 61.2477 121.784C61.7757 122.696 62.0397 123.808 62.0397 125.12C62.0397 126.416 61.7757 127.528 61.2477 128.456C60.7197 129.368 60.0317 130.072 59.1837 130.568C58.3357 131.048 57.4157 131.288 56.4237 131.288ZM56.4237 129.032C57.2877 129.032 57.9677 128.672 58.4637 127.952C58.9597 127.232 59.2077 126.288 59.2077 125.12C59.2077 123.936 58.9597 122.984 58.4637 122.264C57.9677 121.544 57.2877 121.184 56.4237 121.184C55.5597 121.184 54.8797 121.544 54.3837 122.264C53.9037 122.984 53.6637 123.936 53.6637 125.12C53.6637 126.288 53.9037 127.232 54.3837 127.952C54.8797 128.672 55.5597 129.032 56.4237 129.032ZM64.7715 131V119.216H67.0515L67.2435 121.304H67.3395C67.7555 120.536 68.2595 119.952 68.8515 119.552C69.4435 119.136 70.0515 118.928 70.6755 118.928C71.2355 118.928 71.6835 119.008 72.0195 119.168L71.5395 121.568C71.3315 121.504 71.1395 121.456 70.9635 121.424C70.7875 121.392 70.5715 121.376 70.3155 121.376C69.8515 121.376 69.3635 121.56 68.8515 121.928C68.3395 122.28 67.8995 122.904 67.5315 123.8V131H64.7715ZM77.2287 131.288C75.9647 131.288 75.0447 130.88 74.4687 130.064C73.8927 129.248 73.6047 128.096 73.6047 126.608V119.216H76.3647V126.248C76.3647 127.224 76.5087 127.912 76.7967 128.312C77.0847 128.712 77.5487 128.912 78.1887 128.912C78.7007 128.912 79.1487 128.784 79.5327 128.528C79.9327 128.272 80.3567 127.856 80.8047 127.28V119.216H83.5647V131H81.3087L81.0927 129.272H81.0207C80.5087 129.88 79.9487 130.368 79.3407 130.736C78.7327 131.104 78.0287 131.288 77.2287 131.288ZM87.0606 131V119.216H89.3406L89.5326 120.824H89.6286C90.1246 120.296 90.6606 119.848 91.2366 119.48C91.8286 119.112 92.4926 118.928 93.2286 118.928C94.0926 118.928 94.7806 119.12 95.2926 119.504C95.8206 119.872 96.2206 120.384 96.4926 121.04C97.0526 120.432 97.6366 119.928 98.2446 119.528C98.8686 119.128 99.5486 118.928 100.285 118.928C101.533 118.928 102.453 119.336 103.045 120.152C103.637 120.968 103.933 122.12 103.933 123.608V131H101.149V123.968C101.149 122.992 100.997 122.304 100.693 121.904C100.405 121.504 99.9566 121.304 99.3486 121.304C98.6126 121.304 97.7886 121.792 96.8766 122.768V131H94.1166V123.968C94.1166 122.992 93.9646 122.304 93.6606 121.904C93.3726 121.504 92.9166 121.304 92.2926 121.304C91.5566 121.304 90.7326 121.792 89.8206 122.768V131H87.0606Z" fill="#4B4770"/>
<defs>
<linearGradient id="paint0_linear_1628_10001" x1="53.2108" y1="36.3477" x2="70.8117" y2="50.7088" gradientUnits="userSpaceOnUse">
<stop stop-color="#5A5587"/>
<stop offset="1" stop-color="#9993CC"/>
</linearGradient>
<linearGradient id="paint1_linear_1628_10001" x1="49.2255" y1="50.9909" x2="66.1387" y2="72.7151" gradientUnits="userSpaceOnUse">
<stop stop-color="#5A5587"/>
<stop offset="1" stop-color="#9993CC"/>
</linearGradient>
<linearGradient id="paint2_linear_1628_10001" x1="74.6283" y1="50.9909" x2="91.5416" y2="72.715" gradientUnits="userSpaceOnUse">
<stop stop-color="#5A5587"/>
<stop offset="1" stop-color="#9993CC"/>
</linearGradient>
<linearGradient id="paint3_linear_1628_10001" x1="78.826" y1="36.3477" x2="96.3743" y2="50.4614" gradientUnits="userSpaceOnUse">
<stop stop-color="#5A5587"/>
<stop offset="1" stop-color="#9993CC"/>
</linearGradient>
<linearGradient id="paint4_linear_1628_10001" x1="52.1" y1="13.9401" x2="75.7079" y2="50.9649" gradientUnits="userSpaceOnUse">
<stop stop-color="#5A5587"/>
<stop offset="1" stop-color="#9993CC"/>
</linearGradient>
</defs>
</svg>
