<svg width="148" height="152" viewBox="0 0 148 152" fill="none" xmlns="http://www.w3.org/2000/svg">
<rect width="148" height="152" rx="15" fill="#E4E0FF"/>
<path d="M104.488 58.8573H79.3928C76.8781 58.8573 74.8571 60.9031 74.8571 63.3931V88.4643C74.8571 90.979 76.9029 93 79.3928 93H104.464C106.979 93 109 90.9542 109 88.4643V63.3931C109.025 60.9037 106.978 58.8573 104.488 58.8573ZM104.093 88.0939H79.7871V63.7876H104.093V88.0939ZM83.213 43.0551L65.4893 25.3314C63.7141 23.5562 60.8303 23.5562 59.0551 25.3314L41.3314 43.0551C39.5562 44.8303 39.5562 47.714 41.3314 49.4892L59.0551 67.2129C59.9427 68.1005 61.1009 68.544 62.2598 68.544C63.4186 68.544 64.5769 68.1005 65.4645 67.2129L83.1882 49.4892C84.988 47.7146 84.988 44.8303 83.213 43.0551ZM62.2846 63.4665L45.1018 46.2837L62.2846 29.1009L79.4673 46.2837L62.2846 63.4665ZM61.9396 34.4271C63.3691 34.4271 64.5032 35.5859 64.5032 36.9907C64.5032 38.396 63.3443 39.5543 61.9396 39.5543C60.5101 39.5543 59.376 38.3954 59.376 36.9907C59.376 35.5859 60.51 34.4271 61.9396 34.4271ZM68.9404 46.5805C68.9404 45.151 70.0993 44.0169 71.5041 44.0169C72.9336 44.0169 74.0677 45.1757 74.0677 46.5805C74.0677 48.01 72.9088 49.1441 71.5041 49.1441C70.0746 49.1441 68.9404 47.9853 68.9404 46.5805ZM55.1604 46.334C55.1604 47.7635 54.0016 48.8976 52.5968 48.8976C51.1673 48.8976 50.0332 47.7388 50.0332 46.334C50.0332 44.9286 51.192 43.7704 52.5968 43.7704C54.0263 43.7704 55.1604 44.9287 55.1604 46.334ZM64.8482 46.2845C64.8482 47.714 63.6893 48.8481 62.2845 48.8481C60.8792 48.8481 59.7209 47.6892 59.7209 46.2845C59.7209 44.855 60.8798 43.7209 62.2845 43.7209C63.6899 43.7209 64.8482 44.8549 64.8482 46.2845ZM64.7249 55.9233C64.7249 57.3528 63.5661 58.4869 62.1613 58.4869C60.7318 58.4869 59.5977 57.3281 59.5977 55.9233C59.5977 54.4938 60.7565 53.3597 62.1613 53.3597C63.5914 53.3349 64.7249 54.4938 64.7249 55.9233ZM96.4267 71.0832C95.4159 70.0724 95.4159 68.4453 96.4267 67.4351C97.4375 66.4243 99.0647 66.4243 100.075 67.4351C101.086 68.4459 101.086 70.0731 100.075 71.0832C99.0398 72.0941 97.4127 72.0941 96.4267 71.0832ZM96.4267 84.6167C95.4159 83.6059 95.4159 81.9788 96.4267 80.9686C97.4375 79.9578 99.0647 79.9578 100.075 80.9686C101.086 81.9794 101.086 83.6066 100.075 84.6167C99.0645 85.6276 97.4127 85.6276 96.4267 84.6167ZM83.2134 71.0832C82.2025 70.0724 82.2025 68.4453 83.2134 67.4351C84.2242 66.4243 85.8513 66.4243 86.8615 67.4351C87.8723 68.4459 87.8723 70.0731 86.8615 71.0832C85.8512 72.0941 84.2241 72.0941 83.2134 71.0832ZM83.2134 84.6167C82.2025 83.6059 82.2025 81.9788 83.2134 80.9686C84.2242 79.9578 85.8513 79.9578 86.8615 80.9686C87.8723 81.9794 87.8723 83.6066 86.8615 84.6167C85.8512 85.6276 84.2241 85.6276 83.2134 84.6167Z" fill="url(#paint0_linear_1628_9996)"/>
<path d="M47.568 128.288C46.16 128.288 44.896 127.976 43.776 127.352C42.656 126.728 41.776 125.816 41.136 124.616C40.496 123.4 40.176 121.928 40.176 120.2C40.176 118.488 40.504 117.024 41.16 115.808C41.816 114.576 42.704 113.64 43.824 113C44.944 112.344 46.2 112.016 47.592 112.016C48.712 112.016 49.656 112.224 50.424 112.64C51.208 113.04 51.848 113.496 52.344 114.008L50.856 115.808C50.456 115.424 50.008 115.104 49.512 114.848C49.032 114.576 48.424 114.44 47.688 114.44C46.296 114.44 45.168 114.952 44.304 115.976C43.456 116.984 43.032 118.368 43.032 120.128C43.032 121.92 43.44 123.328 44.256 124.352C45.072 125.36 46.264 125.864 47.832 125.864C48.28 125.864 48.704 125.808 49.104 125.696C49.504 125.568 49.832 125.392 50.088 125.168V121.784H47.112V119.504H52.584V126.416C52.056 126.944 51.352 127.392 50.472 127.76C49.608 128.112 48.64 128.288 47.568 128.288ZM58.6783 128.288C57.6543 128.288 56.8143 127.968 56.1583 127.328C55.5183 126.688 55.1983 125.856 55.1983 124.832C55.1983 123.568 55.7503 122.592 56.8543 121.904C57.9583 121.2 59.7183 120.72 62.1343 120.464C62.1183 119.84 61.9503 119.304 61.6303 118.856C61.3263 118.392 60.7743 118.16 59.9743 118.16C59.3983 118.16 58.8303 118.272 58.2703 118.496C57.7263 118.72 57.1903 118.992 56.6623 119.312L55.6543 117.464C56.3103 117.048 57.0463 116.688 57.8623 116.384C58.6943 116.08 59.5743 115.928 60.5023 115.928C61.9743 115.928 63.0703 116.368 63.7903 117.248C64.5263 118.112 64.8943 119.368 64.8943 121.016V128H62.6143L62.4223 126.704H62.3263C61.7983 127.152 61.2303 127.528 60.6223 127.832C60.0303 128.136 59.3823 128.288 58.6783 128.288ZM59.5663 126.128C60.0463 126.128 60.4783 126.016 60.8623 125.792C61.2623 125.552 61.6863 125.232 62.1343 124.832V122.192C60.5343 122.4 59.4223 122.712 58.7983 123.128C58.1743 123.528 57.8623 124.024 57.8623 124.616C57.8623 125.144 58.0223 125.528 58.3423 125.768C58.6623 126.008 59.0703 126.128 59.5663 126.128ZM68.1973 128V116.216H70.4773L70.6693 117.824H70.7653C71.2613 117.296 71.7973 116.848 72.3733 116.48C72.9653 116.112 73.6293 115.928 74.3653 115.928C75.2293 115.928 75.9173 116.12 76.4293 116.504C76.9573 116.872 77.3573 117.384 77.6293 118.04C78.1893 117.432 78.7733 116.928 79.3813 116.528C80.0053 116.128 80.6853 115.928 81.4213 115.928C82.6693 115.928 83.5893 116.336 84.1813 117.152C84.7733 117.968 85.0693 119.12 85.0693 120.608V128H82.2853V120.968C82.2853 119.992 82.1333 119.304 81.8293 118.904C81.5413 118.504 81.0933 118.304 80.4853 118.304C79.7493 118.304 78.9253 118.792 78.0133 119.768V128H75.2533V120.968C75.2533 119.992 75.1013 119.304 74.7973 118.904C74.5093 118.504 74.0533 118.304 73.4293 118.304C72.6933 118.304 71.8693 118.792 70.9573 119.768V128H68.1973ZM93.4639 128.288C92.3759 128.288 91.3919 128.048 90.5119 127.568C89.6319 127.072 88.9359 126.368 88.4239 125.456C87.9119 124.528 87.6559 123.416 87.6559 122.12C87.6559 120.84 87.9119 119.736 88.4239 118.808C88.9519 117.88 89.6319 117.168 90.4639 116.672C91.2959 116.176 92.1679 115.928 93.0799 115.928C94.1519 115.928 95.0479 116.168 95.7679 116.648C96.4879 117.112 97.0319 117.768 97.3999 118.616C97.7679 119.448 97.9519 120.416 97.9519 121.52C97.9519 122.096 97.9119 122.544 97.8319 122.864H90.3439C90.4719 123.904 90.8479 124.712 91.4719 125.288C92.0959 125.864 92.8799 126.152 93.8239 126.152C94.3359 126.152 94.8079 126.08 95.2399 125.936C95.6879 125.776 96.1279 125.56 96.5599 125.288L97.4959 127.016C96.9359 127.384 96.3119 127.688 95.6239 127.928C94.9359 128.168 94.2159 128.288 93.4639 128.288ZM90.3199 120.992H95.5519C95.5519 120.08 95.3519 119.368 94.9519 118.856C94.5519 118.328 93.9519 118.064 93.1519 118.064C92.4639 118.064 91.8479 118.32 91.3039 118.832C90.7759 119.328 90.4479 120.048 90.3199 120.992ZM103.876 128.288C103.076 128.288 102.276 128.136 101.476 127.832C100.676 127.512 99.9879 127.12 99.4119 126.656L100.708 124.88C101.236 125.28 101.764 125.6 102.292 125.84C102.82 126.08 103.38 126.2 103.972 126.2C104.612 126.2 105.084 126.064 105.388 125.792C105.692 125.52 105.844 125.184 105.844 124.784C105.844 124.448 105.716 124.176 105.46 123.968C105.22 123.744 104.908 123.552 104.524 123.392C104.14 123.216 103.74 123.048 103.324 122.888C102.812 122.696 102.3 122.464 101.788 122.192C101.292 121.904 100.884 121.544 100.564 121.112C100.244 120.664 100.084 120.112 100.084 119.456C100.084 118.416 100.468 117.568 101.236 116.912C102.004 116.256 103.044 115.928 104.356 115.928C105.188 115.928 105.932 116.072 106.588 116.36C107.244 116.648 107.812 116.976 108.292 117.344L107.02 119.024C106.604 118.72 106.18 118.48 105.748 118.304C105.332 118.112 104.892 118.016 104.428 118.016C103.836 118.016 103.396 118.144 103.108 118.4C102.82 118.64 102.676 118.944 102.676 119.312C102.676 119.776 102.916 120.128 103.396 120.368C103.876 120.608 104.436 120.84 105.076 121.064C105.62 121.256 106.148 121.496 106.66 121.784C107.172 122.056 107.596 122.416 107.932 122.864C108.284 123.312 108.46 123.904 108.46 124.64C108.46 125.648 108.068 126.512 107.284 127.232C106.5 127.936 105.364 128.288 103.876 128.288Z" fill="#4B4770"/>
<defs>
<linearGradient id="paint0_linear_1628_9996" x1="37.5815" y1="13.8655" x2="121.971" y2="82.3336" gradientUnits="userSpaceOnUse">
<stop stop-color="#5A5587"/>
<stop offset="1" stop-color="#9993CC"/>
</linearGradient>
</defs>
</svg>
