<svg width="148" height="152" viewBox="0 0 148 152" fill="none" xmlns="http://www.w3.org/2000/svg">
<rect width="148" height="152" rx="15" fill="#E4E0FF"/>
<path d="M91.1112 56.6032V76.5188C91.1112 77.836 90.0576 78.8896 88.7404 78.8896H60.8164C59.4993 78.8896 58.4456 77.836 58.4456 76.5188L58.4453 56.6559C57.9183 56.7614 57.4441 56.7614 56.9175 56.7614C56.0745 56.7614 55.2314 56.6559 54.3887 56.4453V76.5717C54.3887 80.1542 57.2865 82.9994 60.8165 82.9994H88.7404C92.2705 82.9994 95.1682 80.1016 95.1682 76.5717L95.1679 56.4453C94.3777 56.6559 93.5347 56.7614 92.6916 56.7614C92.1649 56.7614 91.6379 56.7085 91.1113 56.6033L91.1112 56.6032Z" fill="url(#paint0_linear_1628_10212)"/>
<path d="M71.4592 56.4987C70.827 56.1827 70.0365 56.3933 69.7205 57.0258L66.8226 62.2418H65.3474C64.2938 62.2418 63.5561 63.19 63.7667 64.1912L65.8215 73.9909C65.9795 74.7285 66.6646 75.3081 67.4022 75.3081H82.2599C83.05 75.3081 83.6825 74.7811 83.8405 73.9909L85.8427 64.1912C86.0533 63.19 85.2632 62.2418 84.262 62.2418H82.7868L79.8889 57.0258C79.5729 56.3936 78.7823 56.1827 78.1503 56.4987C77.5182 56.8148 77.3072 57.6054 77.6233 58.2374L79.8361 62.2415L69.7202 62.2419L71.9331 58.2378C72.3021 57.6053 72.0386 56.8151 71.459 56.4991L71.4592 56.4987ZM78.5721 66.2985C78.5721 65.7189 79.0462 65.1919 79.6787 65.1919C80.2582 65.1919 80.7853 65.666 80.7853 66.2985V71.2511C80.7853 71.8307 80.3112 72.3577 79.6787 72.3577C79.0991 72.3577 78.5721 71.8836 78.5721 71.2511V66.2985ZM73.672 66.2985C73.672 65.7189 74.1461 65.1919 74.7786 65.1919C75.3582 65.1919 75.8852 65.666 75.8852 66.2985V71.2511C75.8852 71.8307 75.4111 72.3577 74.7786 72.3577C74.199 72.3577 73.672 71.8836 73.672 71.2511V66.2985ZM69.9314 65.1919C70.511 65.1919 71.038 65.666 71.038 66.2985V71.2511C71.038 71.8307 70.5639 72.3577 69.9314 72.3577C69.3519 72.3577 68.8248 71.8836 68.8248 71.2511V66.2985C68.8248 65.7189 69.2993 65.1919 69.9314 65.1919Z" fill="url(#paint1_linear_1628_10212)"/>
<path d="M98.0659 44.8019L95.326 38.058L95.01 36.3194C94.641 34.37 92.9552 33 91.0059 33H58.6035C56.6542 33 54.9155 34.4226 54.5994 36.3194L54.2308 38.058L51.491 44.8019C50.9114 46.2772 50.806 47.9104 51.3855 49.333C52.2811 51.5983 54.4939 53.021 56.8648 53.021C58.6034 53.021 60.1841 52.2834 61.2903 51.0188C62.397 52.2834 63.9773 53.021 65.6633 53.021H65.9794C67.6656 53.021 69.1933 52.2834 70.2469 51.1767C71.3536 52.3884 72.9339 53.021 74.5674 53.021H74.989C76.6222 53.021 78.2029 52.3359 79.3095 51.1242C80.3631 52.2834 81.8912 53.021 83.577 53.021H83.8931C85.5793 53.021 87.1596 52.2834 88.2661 51.0188C89.3727 52.2305 90.953 53.021 92.6917 53.021C95.0625 53.021 97.2227 51.5983 98.1709 49.333C98.7509 47.9104 98.6454 46.2772 98.0658 44.8019H98.0659Z" fill="url(#paint2_linear_1628_10212)"/>
<path d="M12.5467 118V102.304H15.6907L18.4747 109.984C18.6507 110.48 18.8187 110.992 18.9787 111.52C19.1547 112.032 19.3227 112.544 19.4827 113.056H19.5787C19.7547 112.544 19.9227 112.032 20.0827 111.52C20.2427 110.992 20.4027 110.48 20.5627 109.984L23.2747 102.304H26.4427V118H23.8747V110.824C23.8747 110.328 23.8907 109.792 23.9227 109.216C23.9707 108.624 24.0187 108.032 24.0667 107.44C24.1307 106.848 24.1867 106.312 24.2347 105.832H24.1387L22.8667 109.48L20.2987 116.536H18.6427L16.0507 109.48L14.8027 105.832H14.7067C14.7547 106.312 14.8027 106.848 14.8507 107.44C14.9147 108.032 14.9627 108.624 14.9947 109.216C15.0427 109.792 15.0667 110.328 15.0667 110.824V118H12.5467ZM33.0455 118.288C32.0215 118.288 31.1815 117.968 30.5255 117.328C29.8855 116.688 29.5655 115.856 29.5655 114.832C29.5655 113.568 30.1175 112.592 31.2215 111.904C32.3255 111.2 34.0855 110.72 36.5015 110.464C36.4855 109.84 36.3175 109.304 35.9975 108.856C35.6935 108.392 35.1415 108.16 34.3415 108.16C33.7655 108.16 33.1975 108.272 32.6375 108.496C32.0935 108.72 31.5575 108.992 31.0295 109.312L30.0215 107.464C30.6775 107.048 31.4135 106.688 32.2295 106.384C33.0615 106.08 33.9415 105.928 34.8695 105.928C36.3415 105.928 37.4375 106.368 38.1575 107.248C38.8935 108.112 39.2615 109.368 39.2615 111.016V118H36.9815L36.7895 116.704H36.6935C36.1655 117.152 35.5975 117.528 34.9895 117.832C34.3975 118.136 33.7495 118.288 33.0455 118.288ZM33.9335 116.128C34.4135 116.128 34.8455 116.016 35.2295 115.792C35.6295 115.552 36.0535 115.232 36.5015 114.832V112.192C34.9015 112.4 33.7895 112.712 33.1655 113.128C32.5415 113.528 32.2295 114.024 32.2295 114.616C32.2295 115.144 32.3895 115.528 32.7095 115.768C33.0295 116.008 33.4375 116.128 33.9335 116.128ZM42.5645 118V106.216H44.8445L45.0365 108.304H45.1325C45.5485 107.536 46.0525 106.952 46.6445 106.552C47.2365 106.136 47.8445 105.928 48.4685 105.928C49.0285 105.928 49.4765 106.008 49.8125 106.168L49.3325 108.568C49.1245 108.504 48.9325 108.456 48.7565 108.424C48.5805 108.392 48.3645 108.376 48.1085 108.376C47.6445 108.376 47.1565 108.56 46.6445 108.928C46.1325 109.28 45.6925 109.904 45.3245 110.8V118H42.5645ZM51.5176 118V101.056H54.2296V111.64H54.3016L58.6696 106.216H61.6936L57.6616 111.016L62.1016 118H59.1016L56.0776 112.888L54.2296 115V118H51.5176ZM68.5342 118.288C67.4462 118.288 66.4622 118.048 65.5822 117.568C64.7022 117.072 64.0062 116.368 63.4942 115.456C62.9822 114.528 62.7262 113.416 62.7262 112.12C62.7262 110.84 62.9822 109.736 63.4942 108.808C64.0222 107.88 64.7022 107.168 65.5342 106.672C66.3662 106.176 67.2382 105.928 68.1502 105.928C69.2222 105.928 70.1182 106.168 70.8382 106.648C71.5582 107.112 72.1022 107.768 72.4702 108.616C72.8382 109.448 73.0222 110.416 73.0222 111.52C73.0222 112.096 72.9822 112.544 72.9022 112.864H65.4142C65.5422 113.904 65.9182 114.712 66.5422 115.288C67.1662 115.864 67.9502 116.152 68.8942 116.152C69.4062 116.152 69.8782 116.08 70.3102 115.936C70.7582 115.776 71.1982 115.56 71.6302 115.288L72.5662 117.016C72.0062 117.384 71.3822 117.688 70.6942 117.928C70.0062 118.168 69.2862 118.288 68.5342 118.288ZM65.3902 110.992H70.6222C70.6222 110.08 70.4222 109.368 70.0222 108.856C69.6222 108.328 69.0222 108.064 68.2222 108.064C67.5342 108.064 66.9182 108.32 66.3742 108.832C65.8462 109.328 65.5182 110.048 65.3902 110.992ZM79.5759 118.288C78.2159 118.288 77.2479 117.896 76.6719 117.112C76.1119 116.312 75.8319 115.28 75.8319 114.016V108.4H74.1519V106.336L75.9759 106.216L76.3119 103H78.6159V106.216H81.6159V108.4H78.6159V114.016C78.6159 115.392 79.1679 116.08 80.2719 116.08C80.4799 116.08 80.6959 116.056 80.9199 116.008C81.1439 115.944 81.3359 115.88 81.4959 115.816L81.9759 117.856C81.6559 117.968 81.2879 118.064 80.8719 118.144C80.4719 118.24 80.0399 118.288 79.5759 118.288ZM84.0958 122.656V106.216H86.3758L86.5678 107.464H86.6638C87.1598 107.048 87.7118 106.688 88.3198 106.384C88.9438 106.08 89.5758 105.928 90.2158 105.928C91.6878 105.928 92.8238 106.472 93.6238 107.56C94.4398 108.648 94.8478 110.104 94.8478 111.928C94.8478 113.272 94.6078 114.424 94.1278 115.384C93.6478 116.328 93.0238 117.048 92.2558 117.544C91.5038 118.04 90.6878 118.288 89.8078 118.288C89.2958 118.288 88.7838 118.176 88.2718 117.952C87.7598 117.712 87.2638 117.392 86.7838 116.992L86.8558 118.96V122.656H84.0958ZM89.2318 116.008C90.0158 116.008 90.6718 115.664 91.1998 114.976C91.7278 114.288 91.9918 113.28 91.9918 111.952C91.9918 110.768 91.7918 109.848 91.3918 109.192C90.9918 108.536 90.3438 108.208 89.4478 108.208C88.6158 108.208 87.7518 108.648 86.8558 109.528V115.024C87.2878 115.376 87.7038 115.632 88.1038 115.792C88.5038 115.936 88.8798 116.008 89.2318 116.008ZM100.331 118.288C99.3546 118.288 98.6586 117.992 98.2426 117.4C97.8426 116.808 97.6426 116 97.6426 114.976V101.056H100.403V115.12C100.403 115.456 100.467 115.696 100.595 115.84C100.723 115.968 100.859 116.032 101.003 116.032C101.067 116.032 101.123 116.032 101.171 116.032C101.235 116.016 101.323 116 101.435 115.984L101.795 118.048C101.635 118.112 101.427 118.168 101.171 118.216C100.931 118.264 100.651 118.288 100.331 118.288ZM107.014 118.288C105.99 118.288 105.15 117.968 104.494 117.328C103.854 116.688 103.534 115.856 103.534 114.832C103.534 113.568 104.086 112.592 105.19 111.904C106.294 111.2 108.054 110.72 110.47 110.464C110.454 109.84 110.286 109.304 109.966 108.856C109.662 108.392 109.11 108.16 108.31 108.16C107.734 108.16 107.166 108.272 106.606 108.496C106.062 108.72 105.526 108.992 104.998 109.312L103.99 107.464C104.646 107.048 105.382 106.688 106.198 106.384C107.03 106.08 107.91 105.928 108.838 105.928C110.31 105.928 111.406 106.368 112.126 107.248C112.862 108.112 113.23 109.368 113.23 111.016V118H110.95L110.758 116.704H110.662C110.134 117.152 109.566 117.528 108.958 117.832C108.366 118.136 107.718 118.288 107.014 118.288ZM107.902 116.128C108.382 116.128 108.814 116.016 109.198 115.792C109.598 115.552 110.022 115.232 110.47 114.832V112.192C108.87 112.4 107.758 112.712 107.134 113.128C106.51 113.528 106.198 114.024 106.198 114.616C106.198 115.144 106.358 115.528 106.678 115.768C106.998 116.008 107.406 116.128 107.902 116.128ZM121.453 118.288C120.381 118.288 119.413 118.048 118.549 117.568C117.701 117.072 117.021 116.368 116.509 115.456C116.013 114.528 115.765 113.416 115.765 112.12C115.765 110.808 116.037 109.696 116.581 108.784C117.125 107.856 117.845 107.152 118.741 106.672C119.653 106.176 120.629 105.928 121.669 105.928C122.421 105.928 123.077 106.056 123.637 106.312C124.197 106.568 124.693 106.88 125.125 107.248L123.781 109.048C123.477 108.776 123.165 108.568 122.845 108.424C122.525 108.264 122.181 108.184 121.813 108.184C120.869 108.184 120.093 108.544 119.485 109.264C118.893 109.984 118.597 110.936 118.597 112.12C118.597 113.288 118.885 114.232 119.461 114.952C120.053 115.672 120.813 116.032 121.741 116.032C122.205 116.032 122.637 115.936 123.037 115.744C123.453 115.536 123.829 115.296 124.165 115.024L125.293 116.848C124.749 117.328 124.141 117.688 123.469 117.928C122.797 118.168 122.125 118.288 121.453 118.288ZM132.073 118.288C130.985 118.288 130.001 118.048 129.121 117.568C128.241 117.072 127.545 116.368 127.033 115.456C126.521 114.528 126.265 113.416 126.265 112.12C126.265 110.84 126.521 109.736 127.033 108.808C127.561 107.88 128.241 107.168 129.073 106.672C129.905 106.176 130.777 105.928 131.689 105.928C132.761 105.928 133.657 106.168 134.377 106.648C135.097 107.112 135.641 107.768 136.009 108.616C136.377 109.448 136.561 110.416 136.561 111.52C136.561 112.096 136.521 112.544 136.441 112.864H128.953C129.081 113.904 129.457 114.712 130.081 115.288C130.705 115.864 131.489 116.152 132.433 116.152C132.945 116.152 133.417 116.08 133.849 115.936C134.297 115.776 134.737 115.56 135.169 115.288L136.105 117.016C135.545 117.384 134.921 117.688 134.233 117.928C133.545 118.168 132.825 118.288 132.073 118.288ZM128.929 110.992H134.161C134.161 110.08 133.961 109.368 133.561 108.856C133.161 108.328 132.561 108.064 131.761 108.064C131.073 108.064 130.457 108.32 129.913 108.832C129.385 109.328 129.057 110.048 128.929 110.992Z" fill="#4B4770"/>
<defs>
<linearGradient id="paint0_linear_1628_10212" x1="52.9593" y1="52.5451" x2="85.3616" y2="92.9177" gradientUnits="userSpaceOnUse">
<stop stop-color="#5A5587"/>
<stop offset="1" stop-color="#9993CC"/>
</linearGradient>
<linearGradient id="paint1_linear_1628_10212" x1="62.9545" y1="53.5695" x2="86.6113" y2="75.9951" gradientUnits="userSpaceOnUse">
<stop stop-color="#5A5587"/>
<stop offset="1" stop-color="#9993CC"/>
</linearGradient>
<linearGradient id="paint2_linear_1628_10212" x1="49.3331" y1="30.0594" x2="69.7931" y2="69.4899" gradientUnits="userSpaceOnUse">
<stop stop-color="#5A5587"/>
<stop offset="1" stop-color="#9993CC"/>
</linearGradient>
</defs>
</svg>
